# xmcd CD database file
#
# Track frame offsets:
#	150
#	11985
#	31707
#	43867
#	53062
#	68990
#	86947
#	105270
#	129365
#	148417
#	160527
#	178132
#	190065
#
# Disc length: 2785 seconds
#
# Revision: 2
# Processed by: cddbd v1.5.2PL0 Copyright (c) Steve Scherf et al.
# Submitted via: CDex 1.70beta2
#
DISCID=b00adf0d
DTITLE=Various Artist - A Taste Of Texas
DYEAR=1997
DGENRE=Country
TTITLE0=George Jones - You Can't Get The Hell Out Of Texas
TTITLE1=Vaughan Brothers - Good Texan
TTITLE2=Highwayman - Texas
TTITLE3=Moe Bandy - Deep In The Heart Of Texas
TTITLE4=Johnny Winter - Hustled Down In Texas
TTITLE5=Rusty Wier - The Devil Lives In Texas
TTITLE6=Billy Joe Shaver - Blue Texas Waltz
TTITLE7=Stevie Vaughan - Texas Flood
TTITLE8=Rodney Crowell - Many A Long Lonesome Highway
TTITLE9=Willie Nelson and Mel Tillis - Texas On A Saturday Night
TTITLE10=Omar and the Howlers - Hard Times In The Land Of Plenty
TTITLE11=Asleep At The Wheel - Way Down Texas Way
TTITLE12=David Allan Coe - Texas Lullabye
EXTD=YEAR: 1997
EXTT0=
EXTT1=
EXTT2=
EXTT3=
EXTT4=
EXTT5=
EXTT6=
EXTT7=
EXTT8=
EXTT9=
EXTT10=
EXTT11=
EXTT12=
PLAYORDER=
